<svg width="358" height="92" viewBox="0 0 458 142" fill="none" xmlns="http://www.w3.org/2000/svg">
<path d="M19.0391 109H0.757812V8.17188H19.0391V109ZM122.609 109H104.328V66.8125C104.328 64.4219 103.906 62.2891 103.062 60.4141C102.266 58.4922 101.164 56.8516 99.7578 55.4922C98.3516 54.1328 96.6875 53.1016 94.7656 52.3984C92.8906 51.6484 90.8516 51.2734 88.6484 51.2734H56.6562V109H38.375V42.0625C38.375 40.7969 38.6094 39.625 39.0781 38.5469C39.5469 37.4219 40.2031 36.4609 41.0469 35.6641C41.8906 34.8203 42.875 34.1641 44 33.6953C45.125 33.2266 46.3203 32.9922 47.5859 32.9922H88.7891C91.0859 32.9922 93.5 33.25 96.0312 33.7656C98.6094 34.2812 101.141 35.125 103.625 36.2969C106.156 37.4219 108.547 38.875 110.797 40.6562C113.094 42.3906 115.109 44.5234 116.844 47.0547C118.625 49.5391 120.031 52.4219 121.062 55.7031C122.094 58.9844 122.609 62.6875 122.609 66.8125V109ZM222.031 83.3359C222.031 86.4766 221.633 89.3125 220.836 91.8438C220.039 94.3281 218.984 96.5312 217.672 98.4531C216.359 100.328 214.836 101.945 213.102 103.305C211.367 104.617 209.539 105.695 207.617 106.539C205.742 107.383 203.82 108.016 201.852 108.438C199.93 108.812 198.102 109 196.367 109H163.391C160.25 109 157.438 108.602 154.953 107.805C152.469 107.008 150.266 105.953 148.344 104.641C146.469 103.281 144.852 101.734 143.492 100C142.18 98.2656 141.102 96.4609 140.258 94.5859C139.414 92.6641 138.781 90.7422 138.359 88.8203C137.984 86.8516 137.797 85.0234 137.797 83.3359V58.5859C137.797 53.8984 138.641 49.9375 140.328 46.7031C142.062 43.4219 144.195 40.7734 146.727 38.7578C149.305 36.6953 152.094 35.2188 155.094 34.3281C158.094 33.4375 160.859 32.9922 163.391 32.9922H196.367V51.2734H163.531C161.094 51.2734 159.242 51.9062 157.977 53.1719C156.711 54.3906 156.078 56.1953 156.078 58.5859V83.1953C156.078 85.6797 156.688 87.5547 157.906 88.8203C159.172 90.0859 161 90.7188 163.391 90.7188H196.367C198.852 90.7188 200.703 90.0859 201.922 88.8203C203.141 87.5547 203.75 85.7266 203.75 83.3359V0.859375H222.031V83.3359ZM258.031 17.3828H239.75V0.859375H258.031V17.3828ZM258.031 109H239.75V32.9922H258.031V109ZM358.297 116.312C358.297 119.453 357.898 122.266 357.102 124.75C356.305 127.281 355.25 129.484 353.938 131.359C352.625 133.281 351.102 134.898 349.367 136.211C347.633 137.57 345.805 138.672 343.883 139.516C342.008 140.359 340.086 140.969 338.117 141.344C336.195 141.766 334.367 141.977 332.633 141.977H299.656V123.695H332.633C335.117 123.695 336.969 123.062 338.188 121.797C339.406 120.531 340.016 118.703 340.016 116.312V58.5859C340.016 56.1953 339.406 54.3906 338.188 53.1719C336.969 51.9062 335.117 51.2734 332.633 51.2734H299.656C297.406 51.2734 295.625 51.9766 294.312 53.3828C293 54.7422 292.344 56.4766 292.344 58.5859V83.3359C292.344 85.7266 292.977 87.5547 294.242 88.8203C295.508 90.0859 297.359 90.7188 299.797 90.7188H332.633V109H299.656C297.922 109 296.094 108.812 294.172 108.438C292.25 108.016 290.328 107.383 288.406 106.539C286.531 105.695 284.727 104.617 282.992 103.305C281.258 101.945 279.734 100.328 278.422 98.4531C277.109 96.5312 276.055 94.3281 275.258 91.8438C274.461 89.3125 274.062 86.4766 274.062 83.3359V58.5859C274.062 56.8516 274.25 55.0234 274.625 53.1016C275.047 51.1797 275.68 49.2812 276.523 47.4062C277.367 45.4844 278.445 43.6562 279.758 41.9219C281.117 40.1875 282.734 38.6641 284.609 37.3516C286.531 36.0391 288.734 34.9844 291.219 34.1875C293.703 33.3906 296.516 32.9922 299.656 32.9922H332.633C334.367 32.9922 336.195 33.2031 338.117 33.625C340.086 34 342.008 34.6094 343.883 35.4531C345.805 36.2969 347.633 37.3984 349.367 38.7578C351.102 40.0703 352.625 41.6875 353.938 43.6094C355.25 45.4844 356.305 47.6641 357.102 50.1484C357.898 52.6328 358.297 55.4453 358.297 58.5859V116.312ZM457.719 83.3359C457.719 86.4766 457.32 89.3125 456.523 91.8438C455.727 94.3281 454.672 96.5312 453.359 98.4531C452.047 100.328 450.523 101.945 448.789 103.305C447.055 104.617 445.227 105.695 443.305 106.539C441.43 107.383 439.508 108.016 437.539 108.438C435.617 108.812 433.789 109 432.055 109H399.078C396.547 109 393.781 108.555 390.781 107.664C387.781 106.773 384.992 105.32 382.414 103.305C379.883 101.242 377.75 98.5938 376.016 95.3594C374.328 92.0781 373.484 88.0703 373.484 83.3359V58.5859C373.484 53.8984 374.328 49.9375 376.016 46.7031C377.75 43.4219 379.883 40.7734 382.414 38.7578C384.992 36.6953 387.781 35.2188 390.781 34.3281C393.781 33.4375 396.547 32.9922 399.078 32.9922H432.055C436.742 32.9922 440.727 33.8359 444.008 35.5234C447.289 37.2109 449.938 39.3438 451.953 41.9219C453.969 44.4531 455.422 47.2188 456.312 50.2188C457.25 53.2188 457.719 56.0078 457.719 58.5859V83.3359ZM439.438 58.7266C439.438 56.1953 438.805 54.3203 437.539 53.1016C436.273 51.8828 434.445 51.2734 432.055 51.2734H399.219C396.781 51.2734 394.93 51.9062 393.664 53.1719C392.398 54.3906 391.766 56.1953 391.766 58.5859V83.3359C391.766 85.7266 392.398 87.5547 393.664 88.8203C394.93 90.0859 396.781 90.7188 399.219 90.7188H432.055C434.539 90.7188 436.391 90.0859 437.609 88.8203C438.828 87.5547 439.438 85.7266 439.438 83.3359V58.7266Z" fill="white"/>
</svg>
